<mxfile host="1b852c42-c9fd-47ad-abad-1b5dba1aec1e" modified="2020-07-14T07:15:29.111Z" agent="5.0 (Windows NT 10.0; Win64; x64) AppleWebKit/537.36 (KHTML, like Gecko) Code/1.47.0 Chrome/78.0.3904.130 Electron/7.3.2 Safari/537.36" etag="SE9vqT4y0dweRDM_92cS" version="13.1.3">
    <diagram id="6hGFLwfOUW9BJ-s0fimq" name="Page-1">
        <mxGraphModel dx="774" dy="500" grid="1" gridSize="10" guides="1" tooltips="1" connect="1" arrows="1" fold="1" page="1" pageScale="1" pageWidth="827" pageHeight="1169" math="0" shadow="0">
            <root>
                <mxCell id="0"/>
                <mxCell id="1" parent="0"/>
                <mxCell id="58" style="edgeStyle=orthogonalEdgeStyle;rounded=0;orthogonalLoop=1;jettySize=auto;html=1;exitX=0.5;exitY=1;exitDx=0;exitDy=0;fontFamily=Helvetica;" edge="1" parent="1" source="3" target="26">
                    <mxGeometry relative="1" as="geometry"/>
                </mxCell>
                <mxCell id="3" value="初始化（NEW）" style="rounded=1;whiteSpace=wrap;html=1;fontSize=12;glass=0;strokeWidth=1;shadow=0;arcSize=50;" vertex="1" parent="1">
                    <mxGeometry x="257.5" y="50" width="161" height="40" as="geometry"/>
                </mxCell>
                <mxCell id="61" style="edgeStyle=orthogonalEdgeStyle;rounded=0;orthogonalLoop=1;jettySize=auto;html=1;fontFamily=Helvetica;" edge="1" parent="1" source="26">
                    <mxGeometry relative="1" as="geometry">
                        <mxPoint x="338" y="150" as="targetPoint"/>
                    </mxGeometry>
                </mxCell>
                <mxCell id="26" value="Thread.start" style="text;html=1;align=center;verticalAlign=middle;resizable=0;points=[];autosize=1;fontFamily=Helvetica;" vertex="1" parent="1">
                    <mxGeometry x="298" y="100" width="80" height="20" as="geometry"/>
                </mxCell>
                <mxCell id="35" value="终止&lt;br&gt;TERMINATED" style="ellipse;whiteSpace=wrap;html=1;fontFamily=Helvetica;" vertex="1" parent="1">
                    <mxGeometry x="265" y="390" width="140" height="70" as="geometry"/>
                </mxCell>
                <mxCell id="77" style="edgeStyle=orthogonalEdgeStyle;rounded=0;orthogonalLoop=1;jettySize=auto;html=1;fontFamily=Helvetica;" edge="1" parent="1" source="39">
                    <mxGeometry relative="1" as="geometry">
                        <mxPoint x="500" y="175" as="targetPoint"/>
                    </mxGeometry>
                </mxCell>
                <mxCell id="39" value="超时等待&lt;br&gt;TIMED_WAITING" style="whiteSpace=wrap;html=1;aspect=fixed;fontFamily=Helvetica;" vertex="1" parent="1">
                    <mxGeometry x="585" y="120" width="110" height="110" as="geometry"/>
                </mxCell>
                <mxCell id="80" style="edgeStyle=orthogonalEdgeStyle;rounded=0;orthogonalLoop=1;jettySize=auto;html=1;fontFamily=Helvetica;" edge="1" parent="1" source="40">
                    <mxGeometry relative="1" as="geometry">
                        <mxPoint x="430" y="310" as="targetPoint"/>
                    </mxGeometry>
                </mxCell>
                <mxCell id="40" value="阻塞&lt;br&gt;BLOCKD" style="whiteSpace=wrap;html=1;aspect=fixed;fontFamily=Helvetica;" vertex="1" parent="1">
                    <mxGeometry x="580" y="370" width="80" height="80" as="geometry"/>
                </mxCell>
                <mxCell id="63" style="edgeStyle=orthogonalEdgeStyle;rounded=0;orthogonalLoop=1;jettySize=auto;html=1;exitX=1;exitY=0.5;exitDx=0;exitDy=0;entryX=0;entryY=0.25;entryDx=0;entryDy=0;fontFamily=Helvetica;" edge="1" parent="1" source="41" target="42">
                    <mxGeometry relative="1" as="geometry"/>
                </mxCell>
                <mxCell id="41" value="等待&lt;br&gt;WAITING" style="whiteSpace=wrap;html=1;aspect=fixed;labelBackgroundColor=none;fontFamily=Helvetica;" vertex="1" parent="1">
                    <mxGeometry x="10" y="130" width="80" height="80" as="geometry"/>
                </mxCell>
                <mxCell id="62" style="edgeStyle=orthogonalEdgeStyle;rounded=0;orthogonalLoop=1;jettySize=auto;html=1;entryX=0.5;entryY=0;entryDx=0;entryDy=0;fontFamily=Helvetica;" edge="1" parent="1" source="42" target="35">
                    <mxGeometry relative="1" as="geometry"/>
                </mxCell>
                <mxCell id="65" style="edgeStyle=orthogonalEdgeStyle;rounded=0;orthogonalLoop=1;jettySize=auto;html=1;entryX=1.009;entryY=0.891;entryDx=0;entryDy=0;entryPerimeter=0;fontFamily=Helvetica;" edge="1" parent="1" source="42" target="41">
                    <mxGeometry relative="1" as="geometry"/>
                </mxCell>
                <mxCell id="76" style="edgeStyle=orthogonalEdgeStyle;rounded=0;orthogonalLoop=1;jettySize=auto;html=1;exitX=1;exitY=0.25;exitDx=0;exitDy=0;entryX=0.045;entryY=0.636;entryDx=0;entryDy=0;entryPerimeter=0;fontFamily=Helvetica;" edge="1" parent="1" source="42" target="39">
                    <mxGeometry relative="1" as="geometry"/>
                </mxCell>
                <mxCell id="42" value="运行" style="swimlane;html=1;startSize=20;horizontal=1;containerType=tree;labelBackgroundColor=none;fontFamily=Helvetica;" vertex="1" parent="1">
                    <mxGeometry x="170" y="150" width="330" height="160" as="geometry"/>
                </mxCell>
                <mxCell id="43" value="" style="edgeStyle=elbowEdgeStyle;elbow=vertical;startArrow=none;endArrow=none;rounded=0;" edge="1" parent="42" source="44" target="45">
                    <mxGeometry relative="1" as="geometry"/>
                </mxCell>
                <mxCell id="44" value="就绪" style="whiteSpace=wrap;html=1;treeFolding=1;treeMoving=1;newEdgeStyle={&quot;edgeStyle&quot;:&quot;elbowEdgeStyle&quot;,&quot;startArrow&quot;:&quot;none&quot;,&quot;endArrow&quot;:&quot;none&quot;};" vertex="1" parent="42">
                    <mxGeometry x="30" y="40" width="80" height="40" as="geometry"/>
                </mxCell>
                <mxCell id="45" value="运行中" style="whiteSpace=wrap;html=1;treeFolding=1;treeMoving=1;newEdgeStyle={&quot;edgeStyle&quot;:&quot;elbowEdgeStyle&quot;,&quot;startArrow&quot;:&quot;none&quot;,&quot;endArrow&quot;:&quot;none&quot;};" vertex="1" parent="42">
                    <mxGeometry x="170" y="40" width="120" height="40" as="geometry"/>
                </mxCell>
                <mxCell id="46" value="系统调度" style="text;html=1;align=center;verticalAlign=middle;resizable=0;points=[];autosize=1;fontFamily=Helvetica;" vertex="1" parent="42">
                    <mxGeometry x="109" y="71" width="60" height="20" as="geometry"/>
                </mxCell>
                <mxCell id="64" value="Object..wait&lt;br&gt;Object.join&lt;br&gt;LockSupport.park" style="text;html=1;align=center;verticalAlign=middle;resizable=0;points=[];autosize=1;fontFamily=Helvetica;" vertex="1" parent="1">
                    <mxGeometry x="90" y="100" width="110" height="50" as="geometry"/>
                </mxCell>
                <mxCell id="66" value="Object..notify&lt;br&gt;Object.notifyAll&lt;br&gt;LockSupport.unpark(Thread)" style="text;html=1;align=center;verticalAlign=middle;resizable=0;points=[];autosize=1;fontFamily=Helvetica;" vertex="1" parent="1">
                    <mxGeometry y="260" width="170" height="50" as="geometry"/>
                </mxCell>
                <mxCell id="69" value="执行完成" style="text;html=1;align=center;verticalAlign=middle;resizable=0;points=[];autosize=1;fontFamily=Helvetica;" vertex="1" parent="1">
                    <mxGeometry x="359" y="338" width="60" height="20" as="geometry"/>
                </mxCell>
                <mxCell id="72" value="Thread.sleep&lt;br&gt;Object.wait()&lt;br&gt;Thread.join&lt;br&gt;LockSupport.parkNanos&lt;br&gt;LockSupport.parkUntil" style="text;html=1;align=center;verticalAlign=middle;resizable=0;points=[];autosize=1;fontFamily=Helvetica;" vertex="1" parent="1">
                    <mxGeometry x="500" y="230" width="140" height="70" as="geometry"/>
                </mxCell>
                <mxCell id="79" value="Object.notify&lt;br&gt;Object.notifyAll&lt;br&gt;LockSupport.unpark" style="text;html=1;align=center;verticalAlign=middle;resizable=0;points=[];autosize=1;fontFamily=Helvetica;" vertex="1" parent="1">
                    <mxGeometry x="470" y="50" width="120" height="50" as="geometry"/>
                </mxCell>
                <mxCell id="81" value="等待进入Synchronized方法" style="text;html=1;align=center;verticalAlign=middle;resizable=0;points=[];autosize=1;fontFamily=Helvetica;" vertex="1" parent="1">
                    <mxGeometry x="418" y="355" width="160" height="20" as="geometry"/>
                </mxCell>
            </root>
        </mxGraphModel>
    </diagram>
</mxfile>